<svg xmlns="http://www.w3.org/2000/svg" xmlns:svg="http://www.w3.org/2000/svg" id="svg2" width="56.645" height="32" version="1.1" viewBox="0 0 56.645 32"><metadata id="metadata14"/><path id="path4144" d="m 36.644569,3.0508475 20,12.0000005 -20,12 z" style="fill:#000;fill-opacity:1"/><g id="g4166" transform="matrix(0.73728814,0,0,0.73728814,4.2042585,4.2033898)"><path id="path4156" d="M 27.802,5.197 C 24.877,2.003 20.672,0 15.999,0 c -8.837,0 -16,7.163 -16,16 l 3,0 c 0,-7.18 5.82,-13 13,-13 3.844,0 7.298,1.669 9.678,4.322 L 20.999,12 l 11,0 0,-11 -4.198,4.197 z"/><path id="path4158" d="M 29,16 C 29,23.18 23.18,29 16,29 12.156,29 8.702,27.331 6.322,24.678 L 11,20 0,20 0,31 4.197,26.803 C 7.122,29.997 11.327,32 16,32 24.837,32 32,24.837 32,16 l -3,0 z"/></g></svg>